<svg id="Ebene_1" xmlns="http://www.w3.org/2000/svg" version="1.1" viewBox="0 0 512 512"> <defs><style>.st0 {
        fill: #fff;
      }</style></defs> <path class="st0" d="M330.1,162.8c-49.8-73.3-116.3-112.2-151.1-88.3-3.8,2.7-7.2,6.1-9.8,9.9,0,.3-80.6,163.4-80.6,163.4l-45,30.5c-29.1,19.7-36.6,59.3-16.9,88.3,0,0,0,0,0,0l2,3c19.7,28.8,59,36.3,87.9,16.9l72.3,106.5c10.6,13.1,31.1,26.2,56.3,10.8,9-5.9,15.2-15.3,16.9-25.9,2.1-10.6-.2-21.5-6.2-30.4l-63.7-94s150.6-12,151.1-12.2c4.7-1,9.2-2.9,13.1-5.6,17.9-12.2,24.3-37.6,18.1-71.8-5.6-31.5-21.4-67.1-44.3-101.2h0ZM45,358.6l-2-3c-13.6-20-8.4-47.3,11.6-60.9,0,0,0,0,0,0l38.9-26.4,51.3,75.6-38.9,26.4c-20,13.6-47.3,8.4-61-11.6,0,0,0,0,0,0ZM239.6,458.7c6.4,9.5,3.9,22.4-5.6,28.9-9.5,6.4-22.5,3.9-28.9-5.6l-72.1-106.2,29-19.7,7.7-.6,70,103.2ZM163.5,336.1l-55.9-82.4,53.3-108.8c5.2,30.6,20.3,66.8,44.5,102.5s52.3,63.1,78.8,79.2l-120.7,9.5ZM329.5,323c-26.9-1.7-70.7-32.1-107.7-86.7s-49.1-106.3-40.8-132.1c3.1-9.9,12.1-16.7,22.5-16.9,26.7,0,72.1,30.5,110.2,86.7,21.5,31.6,37.1,64.7,41.4,93.6,8.4,55.3-25.5,55.3-25.5,55.3h0Z" style="fill: rgb(255, 255, 255);"></path> <path class="st0" d="M259.8,164.9c-13.9-2.7-28.4.2-40.1,8.3-4.5,3.1-5.6,9.3-2.5,13.8s9.3,5.6,13.8,2.5h0c15.4-10.5,36.4-6.5,46.9,9,10.5,15.4,6.5,36.4-9,46.9h0c-4.5,3.1-5.6,9.2-2.5,13.7,1.8,2.7,4.9,4.3,8.1,4.3,2,0,4-.6,5.6-1.7,24.4-16.5,30.8-49.7,14.3-74.2-8-11.8-20.3-19.9-34.2-22.5h-.4ZM342.3,94.4h1c5,0,9.3-3.8,9.8-8.8l7.6-73.8c.7-5.4-3.1-10.3-8.5-11.1-5.4-.7-10.3,3.1-11.1,8.5,0,.2,0,.4,0,.6l-7.5,73.9c-.6,5.4,3.4,10.2,8.8,10.8h0ZM469.5,79.2c-3-4.5-9.1-5.8-13.7-2.8l-68.6,45c-4.5,3-5.8,9.1-2.8,13.6,1.9,2.8,5,4.5,8.4,4.4,2,0,3.9-.5,5.6-1.6l68.6-45c4.4-3.1,5.5-9.2,2.4-13.7h0ZM490.5,199.3l-79.8-14.3c-5.4-1-10.5,2.6-11.4,8-1,5.4,2.6,10.5,8,11.4h0l79.7,14.3h1.7c5.4.2,10-4.1,10.1-9.6.1-5-3.5-9.3-8.4-10v.2Z" style="fill: rgb(255, 255, 255);"></path> </svg>