<svg id="Ebene_1" xmlns="http://www.w3.org/2000/svg" version="1.1" viewBox="0 0 512 512"> <defs><style>.st0 {
        fill: #fff;
      }</style></defs> <path class="st0" d="M110.8,302.4l23.9,4.3c2.5,8.4,5.7,16.5,9.8,24.2l-13.5,19.5c-2.4,3.4-2.3,7.9.2,11.3,10,13.4,22,25.2,35.7,34.8,3.4,2.4,7.9,2.3,11.2,0l17.9-13c7.5,4.1,15.3,7.4,23.5,9.9l3.7,21.3c.7,4.1,3.9,7.3,8,7.9,8.3,1.3,16.7,2,25.1,2,8.3,0,16.5-.7,24.6-2,4.1-.7,7.3-3.8,8-7.9l3.7-21.3c8.1-2.5,16-5.8,23.5-10l18.1,13c3.3,2.4,7.8,2.4,11.2,0,13.7-9.5,25.7-21.2,35.6-34.6,2.5-3.3,2.5-7.8.2-11.3l-13.6-19.7c4.1-7.7,7.3-15.8,9.8-24.2l23.9-4.3c4-.7,7.2-3.9,7.8-8,1.3-8.4,2-16.4,2-24.6s-.7-16.9-2-25.1c-.7-4.1-3.8-7.3-7.9-8l-23.8-4.1c-2.4-8.4-5.7-16.6-9.9-24.3l13.4-19.5c2.3-3.4,2.3-7.9-.1-11.2-9.9-13.5-21.9-25.3-35.6-34.9-3.4-2.4-7.9-2.3-11.2,0l-17.9,13c-7.4-4.1-15.3-7.4-23.4-9.9l-3.7-21.5c-.7-4.1-3.9-7.2-8-7.9-16.7-2.7-34.6-2.6-49.9.2-4,.7-7.1,3.9-7.8,7.9l-3.7,21.3c-8.1,2.5-15.9,5.8-23.4,9.9l-17.9-12.8c-3.4-2.4-7.9-2.4-11.2,0-13.6,9.7-25.7,21.4-35.6,34.8-2.5,3.3-2.5,7.9-.2,11.3l13.4,19.3c-4.1,7.7-7.4,15.9-9.9,24.3l-23.6,4.1c-4,.7-7.1,3.8-7.8,7.8-1.4,8-2.2,16.5-2.2,25.3s.6,16.2,2,24.6c.6,4.1,3.8,7.3,7.8,8h0ZM121.2,254.6l22.9-4c3.8-.7,6.9-3.6,7.8-7.4,2.3-10.3,6.5-20.6,12.3-30.6,1.9-3.2,1.7-7.3-.4-10.4l-12.8-18.4c6.4-7.7,13.6-14.8,21.6-21l17.2,12.3c3.2,2.3,7.4,2.4,10.7.4,9.2-5.7,19.2-9.9,29.7-12.5,3.7-.9,6.5-4,7.2-7.7l3.5-20.5c9.4-1.1,19.9-1.2,30,0l3.5,20.6c.6,3.8,3.5,6.8,7.2,7.8,10.4,2.6,20.4,6.8,29.7,12.5,3.3,2.1,7.6,1.9,10.7-.4l17.3-12.5c7.9,6.2,15.2,13.2,21.5,21l-12.8,18.6c-2.1,3.1-2.3,7.1-.4,10.4,5.7,9.5,9.8,19.8,12.3,30.6.9,3.8,3.9,6.7,7.8,7.4l23,4c.6,5.1.8,10.2.8,15.3s-.3,9.8-.8,14.8l-23,4.1c-3.8.7-6.8,3.5-7.7,7.2-2.6,10.8-6.8,21-12.4,30.6-1.9,3.3-1.7,7.3.4,10.4l13,18.7c-6.4,7.7-13.6,14.7-21.5,20.9l-17.5-12.6c-3.2-2.3-7.4-2.4-10.8-.3-9.3,5.8-19.2,10-29.7,12.6-3.7.9-6.6,4-7.2,7.7l-3.5,20.4c-10,1.1-20,1.1-30,0l-3.5-20.4c-.7-3.8-3.5-6.8-7.2-7.7-10.5-2.6-20.5-6.9-29.7-12.6-3.3-2.1-7.6-1.9-10.8.4l-17.3,12.5c-7.9-6.2-15.2-13.3-21.6-21l12.9-18.5c2.2-3.1,2.3-7.2.4-10.4-5.6-9.6-9.8-19.9-12.4-30.6-.9-3.7-3.9-6.6-7.7-7.2l-23-4.1c-1.1-10-1.1-20.1,0-30h0Z" style="fill: rgb(255, 255, 255);"></path> <path class="st0" d="M256,348.7c43.6,0,79.1-35.5,79.1-79.1s-35.5-79.1-79.1-79.1-79.1,35.5-79.1,79.1,35.5,79.1,79.1,79.1h0ZM256,209.9c33,0,59.7,26.8,59.7,59.7,0,33-26.8,59.7-59.7,59.7-33,0-59.7-26.8-59.7-59.7,0-33,26.8-59.7,59.7-59.7ZM219.9,484.5c88.9,15.7,176.8-25,223.5-98.1l3.5,16.2c1.1,5.2,6.2,8.5,11.5,7.4s8.5-6.2,7.4-11.5h0l-8.8-41.1c-1.1-5.2-6.2-8.5-11.5-7.4l-41,8.8c-5.2,1.1-8.5,6.3-7.4,11.5s6.3,8.5,11.5,7.4l20.3-4.3c-42.6,69-124.3,106.5-205.6,92.1-32.9-5.8-63.9-19.8-90.1-40.7-4.1-3.4-10.2-2.7-13.6,1.4-3.4,4.1-2.7,10.2,1.4,13.6,0,0,0,0,0,0,28.7,22.9,62.6,38.2,98.8,44.6ZM278.5,27.5c-3.5-4-9.6-4.5-13.6-1,0,0,0,0,0,0l-28.6,24.7c-4,3.5-4.5,9.6-1,13.6,0,0,0,0,0,0l24.7,28.5c3.4,4.1,9.5,4.7,13.6,1.4,4.1-3.4,4.7-9.5,1.4-13.6-.1-.1-.2-.3-.4-.4l-11.2-13c10,.3,19.9,1.2,29.9,3,106.2,18.8,179.4,120.9,163.2,227.4-.8,5.3,2.8,10.2,8.1,11,5.3.8,10.2-2.8,11-8.1,19.2-125.9-75.4-245.9-206.5-252.5l8.6-7.4c4-3.5,4.5-9.6,1-13.6,0,0,0,0,0,0h0ZM41.3,385.6l40.9,10.2c5.5,1.4,10.4-2.3,11.6-6.9.7-2.5-2.1,8.4,10.2-40.9,1.3-5.2-1.9-10.4-7-11.7-5.2-1.3-10.4,1.9-11.7,7h0l-4.4,17.9c-20.8-39.3-27.8-84.4-20-128.1,12.3-69.2,58.7-125.9,124.3-151.6,5-1.8,7.6-7.4,5.8-12.4-1.8-5-7.4-7.6-12.4-5.8-.1,0-.3.1-.4.2-71.8,28.2-122.8,90.4-136.2,166.2-8.7,48.4-.7,98.4,22.5,141.7l-18.4-4.6c-5.2-1.3-10.4,1.9-11.7,7.1-1.3,5.2,1.9,10.4,7.1,11.7Z" style="fill: rgb(255, 255, 255);"></path> </svg>