<?xml version="1.0" encoding="utf-8"?>
<!-- Generator: Adobe Illustrator 29.4.0, SVG Export Plug-In . SVG Version: 9.03 Build 0)  -->
<svg version="1.0" id="Ebene_1" xmlns="http://www.w3.org/2000/svg" xmlns:xlink="http://www.w3.org/1999/xlink" x="0px" y="0px"
	 viewBox="0 0 167.4 229.8" style="enable-background:new 0 0 167.4 229.8;" xml:space="preserve">
<style type="text/css">
	.st0{fill:#1D1D1B;}
</style>
<path class="st0" d="M145.8,67.5c0-34.2-27.7-61.8-61.8-61.8c-34.1,0-61.8,27.7-61.8,61.8c0,34.2,27.7,61.8,61.8,61.8
	c14.3,0,27.4-4.8,37.8-12.9c0.7-0.5,1.7-0.5,2.3,0.2l12.3,12.3c0.7,0.7,1.8,0.7,2.5,0l6.4-6.4c0.7-0.7,0.7-1.8,0-2.5L133,107.7
	c-0.6-0.6-0.7-1.6-0.2-2.3C140.9,94.9,145.8,81.8,145.8,67.5 M120.4,95.1L104.3,79c-0.7-0.7-1.8-0.7-2.5,0l-6.4,6.4
	c-0.7,0.7-0.7,1.8,0,2.5l16.1,16.1c0.8,0.8,0.7,2.1-0.2,2.7c-7.9,5.5-17.4,8.7-27.8,8.6c-26.3-0.2-47.7-22-47.4-48.3
	c0.3-26.2,21.6-47.3,47.8-47.3c26.4,0,47.8,21.4,47.8,47.8c0,10.2-3.2,19.6-8.6,27.4C122.5,95.8,121.2,95.9,120.4,95.1"/>
<g>
	<polygon class="st0" points="51.3,180.8 53.9,180.8 53.9,165.6 59.4,165.6 59.4,163.1 45.8,163.1 45.8,165.6 51.3,165.6 	"/>
	<polygon class="st0" points="65.2,163.1 62.5,163.1 62.5,180.8 65.2,180.8 65.2,172.9 74.6,172.9 74.6,180.8 77.2,180.8 
		77.2,163.1 74.6,163.1 74.6,170.4 65.2,170.4 	"/>
	<polygon class="st0" points="84.3,173 92.5,173 92.5,170.5 84.3,170.5 84.3,165.6 93.1,165.6 93.1,163.1 81.7,163.1 81.7,180.8 
		93.1,180.8 93.1,178.3 84.3,178.3 	"/>
	<path class="st0" d="M116.2,177.5c-1.1,0.7-2.3,1.1-3.6,1.1c-3.6,0-6.6-3-6.6-6.6c0-3.6,3-6.6,6.6-6.6c3.6,0,6.6,3,6.6,6.6
		c0,1.3-0.4,2.5-1.1,3.6l-0.1,0.1l-2.6-2.6l0,0l-1.8,1.8L116.2,177.5L116.2,177.5z M119.9,177.5L119.9,177.5
		c1.2-1.7,1.9-3.6,1.9-5.6c0-5.1-4.1-9.2-9.2-9.2c-5.1,0-9.2,4.1-9.2,9.2c0,5.1,4.1,9.2,9.2,9.2c2,0,3.9-0.6,5.5-1.8l0.1,0l2.1,2.1
		l0,0l1.8-1.8L119.9,177.5z"/>
</g>
<g>
	<path d="M9.6,200.9l4.4,4.5h-1.4l-4.2-4.3v4.3H7.3v-8.9h1.1v4.2l4-4.2h1.3L9.6,200.9z"/>
	<path d="M15.3,195.7h1.1v9.8h-1.1V195.7z"/>
	<path d="M19.5,196.1c0,0.4-0.3,0.7-0.7,0.7c-0.4,0-0.7-0.3-0.7-0.7c0-0.4,0.3-0.7,0.7-0.7C19.2,195.4,19.5,195.7,19.5,196.1z
		 M18.2,198.5h1.1v7h-1.1V198.5z"/>
	<path d="M21.1,198.5h1.1v1.4c0.5-0.9,1.3-1.5,2.5-1.5c1.6,0,2.5,1,2.5,2.7v4.4h-1.1v-4.2c0-1.3-0.6-1.9-1.8-1.9
		c-1.4,0-2.2,1-2.2,2.5v3.6h-1.1V198.5z"/>
	<path d="M30.3,196.1c0,0.4-0.3,0.7-0.7,0.7c-0.4,0-0.7-0.3-0.7-0.7c0-0.4,0.3-0.7,0.7-0.7C30,195.4,30.3,195.7,30.3,196.1z
		 M29,198.5h1.1v7H29V198.5z"/>
	<path d="M33,201.6l3.4-3.1h1.4l-3.7,3.3l4,3.7h-1.4l-3.7-3.4v3.4H32v-9.8H33V201.6z"/>
	<path d="M46.6,195.5c0.5,0,1.1,0.1,1.5,0.3l-0.2,0.9l-0.2-0.1c-0.3-0.1-0.7-0.2-1-0.2c-1.2,0-1.7,0.7-1.7,2v0h2.8v1H45v6H44v-6
		h-1.3v-1H44v-0.1C44,196.6,45,195.5,46.6,195.5z"/>
	<path d="M55.1,198.5v7H54v-1.4c-0.5,0.9-1.3,1.5-2.5,1.5c-1.5,0-2.5-1-2.5-2.7v-4.4h1.1v4.2c0,1.2,0.6,1.9,1.7,1.9
		c1.4,0,2.2-1,2.2-2.5v-3.6H55.1z M51.3,196.1c0,0.4-0.3,0.7-0.7,0.7c-0.4,0-0.7-0.3-0.7-0.7c0-0.4,0.3-0.7,0.7-0.7
		C51,195.4,51.3,195.7,51.3,196.1z M54.2,196.1c0,0.4-0.3,0.7-0.7,0.7c-0.4,0-0.7-0.3-0.7-0.7c0-0.4,0.3-0.7,0.7-0.7
		C53.9,195.4,54.2,195.7,54.2,196.1z"/>
	<path d="M56.9,198.5H58v1.6c0.4-1,1.3-1.7,2.5-1.7c0.2,0,0.3,0,0.4,0v1.1c-0.1,0-0.3,0-0.4,0c-1.5,0-2.5,1-2.5,2.7v3.3h-1.1V198.5z
		"/>
	<path d="M66.1,205.4v-8.9h3.6c2,0,3.1,1.2,3.1,2.8c0,1.6-1.1,2.9-3.1,2.9h-2.5v3.1H66.1z M69.7,201.3c1.4,0,2-0.9,2-1.9
		c0-1-0.6-1.9-2-1.9h-2.5v3.7H69.7z"/>
	<path d="M74.3,195.7h1.1v9.8h-1.1V195.7z"/>
	<path d="M76.9,202c0-2.1,1.4-3.6,3.3-3.6c1.2,0,2.2,0.6,2.7,1.6v-1.4h1.1v7h-1.1V204c-0.5,0.9-1.5,1.5-2.7,1.5
		C78.3,205.6,76.9,204.1,76.9,202z M82.9,202c0-1.5-1.1-2.6-2.5-2.6S78,200.4,78,202c0,1.5,1,2.6,2.4,2.6
		C81.8,204.6,82.9,203.5,82.9,202z"/>
	<path d="M85.4,203.3h1.1c0.3,1,1,1.3,2.3,1.3c1,0,1.8-0.4,1.8-1c0-0.7-0.8-0.8-2.1-1.1c-1.9-0.5-2.8-0.8-2.8-2
		c0-1.3,1.2-2.1,2.8-2.1c1.6,0,2.7,0.7,3,2h-1.1c-0.3-0.7-0.9-1-1.9-1c-1.1,0-1.8,0.4-1.8,1c0,0.6,0.6,0.7,2,1.1
		c1.8,0.4,2.9,0.7,2.9,2c0,1.4-1.3,2.1-2.9,2.1C86.9,205.6,85.7,204.7,85.4,203.3z"/>
	<path d="M93.8,202.8v-3.3h-1.3v-1h1.3v-1.7l1.1-0.2v1.9H98v1h-3.1v3.3c0,1.2,0.5,1.9,1.6,1.9c0.5,0,1-0.2,1.5-0.3l0.2,0.9
		c-0.4,0.2-1.1,0.4-1.9,0.4C94.8,205.6,93.8,204.6,93.8,202.8z"/>
	<path d="M100.9,196.1c0,0.4-0.3,0.7-0.7,0.7c-0.4,0-0.7-0.3-0.7-0.7c0-0.4,0.3-0.7,0.7-0.7C100.6,195.4,100.9,195.7,100.9,196.1z
		 M99.7,198.5h1.1v7h-1.1V198.5z"/>
	<path d="M102.2,203.3h1.1c0.3,1,1,1.3,2.3,1.3c1,0,1.8-0.4,1.8-1c0-0.7-0.8-0.8-2.1-1.1c-1.9-0.5-2.8-0.8-2.8-2
		c0-1.3,1.2-2.1,2.8-2.1c1.6,0,2.7,0.7,3,2h-1.1c-0.3-0.7-0.9-1-1.9-1c-1.1,0-1.8,0.4-1.8,1c0,0.6,0.6,0.7,2,1.1
		c1.8,0.4,2.9,0.7,2.9,2c0,1.4-1.3,2.1-2.9,2.1C103.7,205.6,102.4,204.7,102.2,203.3z"/>
	<path d="M109.6,202c0-2.1,1.6-3.6,3.6-3.6c1.6,0,3,1,3.4,2.6h-1.1c-0.3-1-1.2-1.6-2.3-1.6c-1.5,0-2.5,1.1-2.5,2.6
		c0,1.5,1.1,2.6,2.5,2.6c1.1,0,2-0.6,2.3-1.6h1.1c-0.4,1.6-1.8,2.6-3.4,2.6C111.1,205.6,109.6,204,109.6,202z"/>
	<path d="M118.1,195.7h1.1v4.1c0.5-0.9,1.3-1.5,2.5-1.5c1.6,0,2.5,1,2.5,2.7v4.4h-1.1v-4.2c0-1.3-0.6-1.9-1.8-1.9
		c-1.4,0-2.2,1-2.2,2.5v3.6h-1.1V195.7z"/>
	<path d="M125.7,202c0-2.1,1.5-3.7,3.6-3.7c2.2,0,3.6,1.6,3.5,3.9h-6c0.1,1.4,1.1,2.3,2.5,2.3c1,0,1.8-0.4,2.2-1.2h1.1
		c-0.6,1.5-1.9,2.2-3.3,2.2C127.2,205.6,125.7,204.1,125.7,202z M131.6,201.3c-0.2-1.2-1.1-2-2.3-2c-1.3,0-2.2,0.8-2.4,2H131.6z"/>
	<path d="M144,198.5v7H143v-1.4c-0.5,0.9-1.3,1.5-2.5,1.5c-1.5,0-2.5-1-2.5-2.7v-4.4h1.1v4.2c0,1.2,0.6,1.9,1.7,1.9
		c1.4,0,2.2-1,2.2-2.5v-3.6H144z"/>
	<path d="M145.9,198.5h1.1v1.4c0.5-0.9,1.3-1.5,2.5-1.5c1.6,0,2.5,1,2.5,2.7v4.4h-1.1v-4.2c0-1.3-0.6-1.9-1.8-1.9
		c-1.4,0-2.2,1-2.2,2.5v3.6h-1.1V198.5z"/>
	<path d="M153.5,202c0-2.1,1.4-3.6,3.3-3.6c1.2,0,2.2,0.6,2.7,1.6v-4.2h1.1v9.8h-1.1V204c-0.5,0.9-1.5,1.5-2.7,1.5
		C154.9,205.6,153.5,204.1,153.5,202z M159.5,202c0-1.5-1.1-2.6-2.5-2.6c-1.4,0-2.4,1.1-2.4,2.6c0,1.5,1,2.6,2.4,2.6
		C158.4,204.6,159.5,203.5,159.5,202z"/>
	<path d="M16.3,211.8h1.4l3.6,8.9h-1.1L19,218h-4.1l-1.1,2.7h-1.1L16.3,211.8z M16.2,209.6c0,0.4-0.3,0.7-0.7,0.7
		c-0.4,0-0.7-0.3-0.7-0.7c0-0.4,0.3-0.7,0.7-0.7C15.9,208.9,16.2,209.2,16.2,209.6z M18.6,217l-1.7-4.2l-1.7,4.2H18.6z M19.1,209.6
		c0,0.4-0.3,0.7-0.7,0.7c-0.4,0-0.7-0.3-0.7-0.7c0-0.4,0.3-0.7,0.7-0.7C18.8,208.9,19.1,209.2,19.1,209.6z"/>
	<path d="M21.9,218.5H23c0.3,1,1,1.3,2.3,1.3c1,0,1.8-0.4,1.8-1c0-0.7-0.8-0.8-2.1-1.1c-1.9-0.5-2.8-0.8-2.8-2
		c0-1.3,1.2-2.1,2.8-2.1c1.6,0,2.7,0.7,3,2H27c-0.3-0.7-0.9-1-1.9-1c-1.1,0-1.8,0.4-1.8,1c0,0.6,0.6,0.7,2,1.1
		c1.8,0.4,2.9,0.7,2.9,2c0,1.4-1.3,2.1-2.9,2.1C23.5,220.8,22.2,220,21.9,218.5z"/>
	<path d="M30.4,218v-3.3H29v-1h1.3V212l1.1-0.2v1.9h3.1v1h-3.1v3.3c0,1.2,0.5,1.9,1.6,1.9c0.5,0,1-0.2,1.5-0.3l0.2,0.9
		c-0.4,0.2-1.1,0.4-1.9,0.4C31.4,220.8,30.4,219.8,30.4,218z"/>
	<path d="M36.3,210.9h1.1v4.1c0.5-0.9,1.3-1.5,2.5-1.5c1.6,0,2.5,1,2.5,2.7v4.4h-1.1v-4.2c0-1.3-0.6-1.9-1.8-1.9
		c-1.4,0-2.2,1-2.2,2.5v3.6h-1.1V210.9z"/>
	<path d="M43.9,217.2c0-2.1,1.5-3.7,3.6-3.7c2.2,0,3.6,1.6,3.5,3.9h-6c0.1,1.4,1.1,2.3,2.5,2.3c1,0,1.8-0.4,2.2-1.2h1.1
		c-0.6,1.5-1.9,2.2-3.3,2.2C45.4,220.8,43.9,219.3,43.9,217.2z M49.8,216.5c-0.2-1.2-1.1-2-2.3-2c-1.3,0-2.2,0.8-2.4,2H49.8z"/>
	<path d="M53.2,218v-3.3h-1.3v-1h1.3V212l1.1-0.2v1.9h3.1v1h-3.1v3.3c0,1.2,0.5,1.9,1.6,1.9c0.5,0,1-0.2,1.5-0.3l0.2,0.9
		c-0.4,0.2-1.1,0.4-1.9,0.4C54.2,220.8,53.2,219.8,53.2,218z"/>
	<path d="M60.3,211.3c0,0.4-0.3,0.7-0.7,0.7c-0.4,0-0.7-0.3-0.7-0.7c0-0.4,0.3-0.7,0.7-0.7C59.9,210.6,60.3,210.9,60.3,211.3z
		 M59,213.7H60v7H59V213.7z"/>
	<path d="M61.5,218.5h1.1c0.3,1,1,1.3,2.3,1.3c1,0,1.8-0.4,1.8-1c0-0.7-0.8-0.8-2.1-1.1c-1.9-0.5-2.8-0.8-2.8-2
		c0-1.3,1.2-2.1,2.8-2.1c1.6,0,2.7,0.7,3,2h-1.1c-0.3-0.7-0.9-1-1.9-1c-1.1,0-1.8,0.4-1.8,1c0,0.6,0.6,0.7,2,1.1
		c1.8,0.4,2.9,0.7,2.9,2c0,1.4-1.3,2.1-2.9,2.1C63,220.8,61.8,220,61.5,218.5z"/>
	<path d="M68.9,217.2c0-2.1,1.6-3.6,3.6-3.6c1.6,0,3,1,3.4,2.6h-1.1c-0.3-1-1.2-1.6-2.3-1.6c-1.5,0-2.5,1.1-2.5,2.6
		c0,1.5,1.1,2.6,2.5,2.6c1.1,0,2-0.6,2.3-1.6h1.1c-0.4,1.6-1.8,2.6-3.4,2.6C70.5,220.8,68.9,219.3,68.9,217.2z"/>
	<path d="M77.4,210.9h1.1v4.1c0.5-0.9,1.3-1.5,2.5-1.5c1.6,0,2.5,1,2.5,2.7v4.4h-1.1v-4.2c0-1.3-0.6-1.9-1.8-1.9
		c-1.4,0-2.2,1-2.2,2.5v3.6h-1.1V210.9z"/>
	<path d="M85,217.2c0-2.1,1.5-3.7,3.6-3.7c2.2,0,3.6,1.6,3.5,3.9h-6c0.1,1.4,1.1,2.3,2.5,2.3c1,0,1.8-0.4,2.2-1.2h1.1
		c-0.6,1.5-1.9,2.2-3.3,2.2C86.6,220.8,85,219.3,85,217.2z M91,216.5c-0.2-1.2-1.1-2-2.3-2c-1.3,0-2.2,0.8-2.4,2H91z"/>
	<path d="M97.3,216.2c0-2.6,2-4.6,4.6-4.6c2,0,3.6,1.2,4.2,3h-1.1c-0.5-1.2-1.7-2-3.1-2c-2,0-3.5,1.5-3.5,3.6c0,2,1.5,3.6,3.5,3.6
		c1.4,0,2.6-0.8,3.1-2h1.1c-0.6,1.8-2.2,3-4.2,3C99.2,220.8,97.3,218.8,97.3,216.2z"/>
	<path d="M107.6,210.9h1.1v4.1c0.5-0.9,1.3-1.5,2.5-1.5c1.6,0,2.5,1,2.5,2.7v4.4h-1.1v-4.2c0-1.3-0.6-1.9-1.8-1.9
		c-1.4,0-2.2,1-2.2,2.5v3.6h-1.1V210.9z"/>
	<path d="M116.7,211.3c0,0.4-0.3,0.7-0.7,0.7c-0.4,0-0.7-0.3-0.7-0.7c0-0.4,0.3-0.7,0.7-0.7C116.4,210.6,116.7,210.9,116.7,211.3z
		 M115.5,213.7h1.1v7h-1.1V213.7z"/>
	<path d="M118.4,213.7h1.1v1.6c0.4-1,1.3-1.7,2.5-1.7c0.2,0,0.3,0,0.4,0v1.1c-0.1,0-0.3,0-0.4,0c-1.5,0-2.5,1-2.5,2.7v3.3h-1.1
		V213.7z"/>
	<path d="M129.6,213.7v7h-1.1v-1.4c-0.5,0.9-1.3,1.5-2.5,1.5c-1.5,0-2.5-1-2.5-2.7v-4.4h1.1v4.2c0,1.2,0.6,1.9,1.7,1.9
		c1.4,0,2.2-1,2.2-2.5v-3.6H129.6z"/>
	<path d="M131.4,213.7h1.1v1.6c0.4-1,1.3-1.7,2.5-1.7c0.2,0,0.3,0,0.4,0v1.1c-0.1,0-0.3,0-0.4,0c-1.5,0-2.5,1-2.5,2.7v3.3h-1.1
		V213.7z"/>
	<path d="M136.5,221.5h1.1c0.3,1,1.2,1.6,2.3,1.6c1.5,0,2.3-0.9,2.3-2.4v-1.4c-0.5,0.9-1.5,1.5-2.7,1.5c-1.9,0-3.3-1.5-3.3-3.6
		c0-2.1,1.4-3.6,3.3-3.6c1.2,0,2.2,0.6,2.7,1.6v-1.4h1.1v6.9c0,2.1-1.3,3.4-3.3,3.4C138.3,224,136.9,223.1,136.5,221.5z
		 M142.2,217.1c0-1.5-1.1-2.6-2.5-2.6c-1.4,0-2.4,1.1-2.4,2.6c0,1.5,1,2.6,2.4,2.6C141.1,219.7,142.2,218.7,142.2,217.1z"/>
	<path d="M146.4,211.3c0,0.4-0.3,0.7-0.7,0.7c-0.4,0-0.7-0.3-0.7-0.7c0-0.4,0.3-0.7,0.7-0.7C146.1,210.6,146.4,210.9,146.4,211.3z
		 M145.1,213.7h1.1v7h-1.1V213.7z"/>
	<path d="M147.8,217.2c0-2.1,1.5-3.7,3.6-3.7c2.2,0,3.6,1.6,3.5,3.9h-6c0.1,1.4,1.1,2.3,2.5,2.3c1,0,1.8-0.4,2.2-1.2h1.1
		c-0.6,1.5-1.9,2.2-3.3,2.2C149.3,220.8,147.8,219.3,147.8,217.2z M153.7,216.5c-0.2-1.2-1.1-2-2.3-2c-1.3,0-2.2,0.8-2.4,2H153.7z"
		/>
</g>
<g>
</g>
<g>
</g>
<g>
</g>
<g>
</g>
<g>
</g>
<g>
</g>
</svg>
