<svg id="Ebene_1" xmlns="http://www.w3.org/2000/svg" version="1.1" viewBox="0 0 512 512"> <defs><style>.st0 {
        fill: #fff;
      }</style></defs> <path class="st0" d="M256,512C114.8,512,0,397.2,0,256S114.8,0,256,0s256,114.8,256,256-.9,25.5-2.9,39.4c-1,5.8-6.6,9.7-12.4,8.7-5.5-1-9.3-6-8.8-11.6,1.8-13,2.7-25,2.7-36.5,0-129.4-105.3-234.7-234.7-234.7S21.3,126.6,21.3,256s105.3,234.7,234.7,234.7,25.3-1,36.4-2.7c5.8-.9,11.2,3.1,12.1,8.9,0,0,0,0,0,.1.9,5.8-3.2,11.2-9,12.1,0,0,0,0,0,0-12,1.8-27.5,2.9-39.5,2.9Z" style="fill: rgb(255, 255, 255);"></path> <path class="st0" d="M256,512l-6-.2c-44.4-4.7-83-51.5-104.3-125.3-11.5-38.7-17.7-83.9-17.7-130.5s6.1-91.1,17.7-130.6C167,51.7,205.6,4.9,248.9.3l7.1-.3,6,.2c44.4,4.7,83,51.5,104.3,125.3,11.1,37.7,17.3,81.5,17.7,126.6v3.5c0,5.9-4.8,10.7-10.7,10.7s-10.7-4.8-10.7-10.7v-3.4c-.4-43.1-6.2-84.8-16.9-120.7-18.6-64.3-51.1-106.4-85-110l-4.9-.2-6,.2c-32.7,3.5-65.3,45.7-83.8,109.8-11,37.6-16.9,80.6-16.9,124.2s5.8,88.1,16.8,124.9c18.6,64.3,51.1,106.4,85,110h4.8c0,.1,6.4,0,6.4,0,7-1,14.8-4,22.8-9.2,6.7-4.4,16.6,1,16.6,8.9,0,4.2-2.4,7.9-6.1,9.7-9.6,6.2-20.5,10.3-31.9,11.8l-7.7.3Z" style="fill: rgb(255, 255, 255);"></path> <path class="st0" d="M69.1,425.4c-5.9,0-10.7-4.7-10.7-10.6,0-3.9,2.1-7.5,5.5-9.4,24.9-14.1,56-25.2,89.9-32.3,32.3-6.9,65.3-10.4,98.3-10.5h3.9c5.9,0,10.7,4.8,10.7,10.7s-4.8,10.7-10.7,10.7h-3.8c-31.6,0-63.1,3.4-94,10-31.9,6.7-60.8,17-83.8,30-1.6.9-3.4,1.4-5.2,1.4h0ZM256,149.3c-74.2,0-144.2-15.6-192.1-42.8-5.1-2.9-6.9-9.4-4-14.5,2.9-5.1,9.4-6.9,14.5-4,44.8,25.4,111,40,181.6,40s136.8-14.6,181.6-40c5.3-2.6,11.7-.5,14.3,4.8,2.4,4.9.8,10.8-3.8,13.7-48,27.2-118,42.8-192.1,42.8Z" style="fill: rgb(255, 255, 255);"></path> <path class="st0" d="M256,511.1c-5.9,0-10.7-4.8-10.7-10.7v-149.1c0-5.9,4.8-10.7,10.7-10.7s10.7,4.8,10.7,10.7v149.1c0,5.9-4.8,10.7-10.7,10.7ZM256,266.2c-5.9,0-10.7-4.8-10.7-10.7V10.7c0-5.9,4.8-10.7,10.7-10.7s10.7,4.8,10.7,10.7v244.9c0,5.9-4.8,10.7-10.7,10.7Z" style="fill: rgb(255, 255, 255);"></path> <path class="st0" d="M256,266.2H11.1c-5.9,0-10.7-4.8-10.7-10.7s4.8-10.7,10.7-10.7h244.9c5.9,0,10.7,4.8,10.7,10.7s-4.8,10.7-10.7,10.7ZM500.9,266.2h-159.6c-5.9,0-10.7-4.8-10.7-10.7s4.8-10.7,10.7-10.7h159.6c5.9,0,10.7,4.8,10.7,10.7s-4.8,10.7-10.7,10.7ZM360.7,507.2h-.2c-4.5-.1-8.4-3-9.9-7.3l-67.9-203.6c-1.9-5.6,1.1-11.6,6.7-13.5,2.2-.7,4.6-.7,6.8,0l203.6,67.9c5.6,1.9,8.6,7.9,6.8,13.5-1,3-3.3,5.4-6.3,6.6l-93.6,36-36,93.6c-1.6,4.1-5.6,6.8-10,6.8h0ZM309.7,309.7l51.7,155.2,27-70.3c1.1-2.8,3.3-5,6.1-6.1l70.3-27-155.2-51.8Z" style="fill: rgb(255, 255, 255);"></path> </svg>